<?xml version="1.0" standalone="no"?><!DOCTYPE svg PUBLIC "-//W3C//DTD SVG 1.1//EN" "http://www.w3.org/Graphics/SVG/1.1/DTD/svg11.dtd"><svg t="1607956124632" class="icon" viewBox="0 0 1024 1024" version="1.1" xmlns="http://www.w3.org/2000/svg" p-id="1150" xmlns:xlink="http://www.w3.org/1999/xlink" width="200" height="200"><defs><style type="text/css"></style></defs><path d="M527.019 202.159c-3.98-3.987-9.385-6.225-15.02-6.225s-11.037 2.238-15.022 6.225l-154.8 154.795c-8.295 8.295-8.295 21.745 0 30.04 8.3 8.297 21.747 8.297 30.042 0l139.78-139.775 139.77 139.775c4.15 4.15 9.59 6.225 15.025 6.225s10.875-2.075 15.025-6.225c8.295-8.295 8.295-21.745 0-30.04L527.019 202.159 527.019 202.159zM116.095 596.078l90.867 0 0 231.984 42.485 0L249.447 596.078l90.867 0 0-42.48L116.095 553.598 116.095 596.078zM574.634 553.599 462.086 553.599c-13.587 0-27.18 5.185-37.547 15.55-10.372 10.37-15.555 23.96-15.555 37.555l0 168.25c0 13.595 5.182 27.185 15.555 37.555 10.367 10.37 23.96 15.555 37.547 15.555l112.547 0c13.59 0 27.185-5.185 37.555-15.555 10.37-10.37 15.55-23.96 15.55-37.555L627.738 606.708c0-13.6-5.18-27.185-15.55-37.56C601.818 558.784 588.224 553.599 574.634 553.599L574.634 553.599zM585.258 774.953c0 2.01-0.55 4.945-3.11 7.515-2.57 2.57-5.51 3.11-7.515 3.11L462.086 785.578c-2.005 0-4.935-0.54-7.505-3.11s-3.112-5.505-3.112-7.515L451.469 606.708c0-2.01 0.542-4.945 3.112-7.515s5.5-3.115 7.505-3.115l112.547 0c2.005 0 4.945 0.545 7.505 3.115 2.57 2.57 3.12 5.505 3.12 7.515L585.258 774.953 585.258 774.953zM892.348 569.148c-10.37-10.36-23.965-15.55-37.555-15.55L709.138 553.598l0 274.464 42.48 0 0-120.38 103.175 0c13.595 0 27.185-5.185 37.555-15.555s15.555-23.96 15.555-37.55l0-47.875C907.903 593.108 902.718 579.523 892.348 569.148L892.348 569.148zM865.418 654.578c0 2.005-0.54 4.94-3.11 7.51s-5.51 3.11-7.51 3.11l-103.17 0 0-69.12 103.17 0c2.005 0 4.94 0.545 7.51 3.115s3.11 5.505 3.11 7.515L865.418 654.578 865.418 654.578z" p-id="1151"></path></svg>