<?xml version="1.0" standalone="no"?><!DOCTYPE svg PUBLIC "-//W3C//DTD SVG 1.1//EN" "http://www.w3.org/Graphics/SVG/1.1/DTD/svg11.dtd"><svg t="1608455101864" class="icon" viewBox="0 0 1024 1024" version="1.1" xmlns="http://www.w3.org/2000/svg" p-id="3713" xmlns:xlink="http://www.w3.org/1999/xlink" width="200" height="200"><defs><style type="text/css"></style></defs><path d="M720.203 626.435c-44.062 0-83.227-24.703-103.576-61.269-20.345 36.566-59.51 61.269-103.572 61.269-45 0-84.219-25.249-104.232-62.322-20.01 37.073-59.228 62.322-104.232 62.322-1.81 0-3.612-0.041-5.408-0.122-36.089-1.626-68.287-20.094-88.343-50.668-20.348-31.025-24.617-70.181-11.423-104.743l79.174-207.35a14.455 14.455 0 0 1 13.501-9.295H735.33c6.043 0 11.448 3.76 13.547 9.425l77.107 207.912c12.816 34.559 8.28 73.585-12.143 104.396-20.122 30.361-52.282 48.703-88.233 50.323-1.792 0.081-3.595 0.122-5.405 0.122z m-89.08-110.073c4.188 45.607 43.106 81.173 89.08 81.173 1.372 0 2.745-0.031 4.103-0.092 26.628-1.2 50.479-14.838 65.447-37.419 15.339-23.144 18.754-52.445 9.137-78.381l-73.614-198.487H302.042L226.42 481.211c-9.899 25.918-6.689 55.295 8.587 78.584 14.905 22.723 38.77 36.445 65.479 37.648a91.87 91.87 0 0 0 4.106 0.092c49.325 0 89.457-40.129 89.457-89.454 0-7.98 6.47-14.45 14.45-14.45h0.653c7.98 0 14.45 6.47 14.45 14.45 0 49.325 40.128 89.454 89.454 89.454 45.971 0 84.892-35.566 89.076-81.173-0.19-2.745-0.286-5.525-0.286-8.281 0-7.98 6.47-14.45 14.45-14.45h0.663c7.98 0 14.45 6.47 14.45 14.45 0 2.756-0.095 5.535-0.286 8.281zM720.715 840.819H305.397c-30.533 0-55.372-24.84-55.372-55.371V667.547c0-7.981 6.47-14.45 14.45-14.45s14.45 6.469 14.45 14.45v117.901c0 14.597 11.875 26.472 26.472 26.472h415.318c14.598 0 26.472-11.875 26.472-26.472V667.547c0-7.981 6.47-14.45 14.45-14.45s14.45 6.469 14.45 14.45v117.901c0 30.532-24.839 55.371-55.372 55.371z" p-id="3714"></path></svg>